<svg
  xmlns="http://www.w3.org/2000/svg"
  data-name="Layer 1"
  viewBox="0 0 512 640"
  x="0px"
  y="0px"
>
  <title>Pendent Light</title>

  <!-- Lamp Body and Structure -->
  <path 
  d="M93.525,359.771H201.41V363.9a53.072,53.072,0,1,0,106.144,0v-4.124H418.475a6,6,0,0,0,6-6c0-82.015-58.913-150.518-136.64-165.444V168.013A31.883,31.883,0,0,0,262,136.753V16a6,6,0,0,0-12,0V136.753a31.883,31.883,0,0,0-25.835,31.26v20.314c-77.727,14.926-136.64,83.429-136.64,165.444A6,6,0,0,0,93.525,359.771ZM295.554,363.9a41.072,41.072,0,1,1-82.144,0v-4.124h82.144ZM256,148.178a19.851,19.851,0,0,1,19.18,14.868H236.82A19.851,19.851,0,0,1,256,148.178Zm-19.835,26.868h39.67V186.47a168.288,168.288,0,0,0-39.67,0ZM256,197.3c84.274,0,153.2,66.96,156.361,150.474H99.639C102.8,264.257,171.726,197.3,256,197.3Z"
  fill="#F8F8F2" stroke="#0F172A"
  />

  <!-- Center Hanging Line -->
  <path d="M250,455.508V496a6,6,0,0,0,12,0V455.508a6,6,0,0,0-12,0Z"
  fill="#F8F8F2"/>

  <!-- Side Rays -->
  <path 
  d="M303.422,431.488a6,6,0,0,0-.075,8.485l28.344,28.851a6,6,0,0,0,8.561-8.41l-28.344-28.851A6,6,0,0,0,303.422,431.488Z"
  fill="#F8F8F2"
  />
  <path 
  d="M200.092,431.563l-28.344,28.851a6,6,0,0,0,8.561,8.41l28.344-28.851a6,6,0,0,0-8.561-8.41Z"
  fill="#F8F8F2"
  />

  <!-- Arc Detail -->
  <path fill="#F8F8F2"
  d="M186.75,236.81a168.731,168.731,0,0,0-45.927,48.143,6,6,0,1,0,10.141,6.417,156.781,156.781,0,0,1,42.677-44.736,6,6,0,0,0-6.891-9.824Z"/>

  
</svg>
